<svg width="316.98125px" height="112.39999999999999px" xmlns="http://www.w3.org/2000/svg" viewBox="91.509375 18.800000000000004 316.98125 112.39999999999999" style="background: rgba(0, 0, 0, 0);" preserveAspectRatio="xMidYMid"><defs><filter id="editing-neon" x="-100%" y="-100%" width="300%" height="300%"><feFlood flood-color="#00ff2f" result="flood"></feFlood><feComposite operator="in" in="flood" in2="SourceAlpha" result="color"></feComposite><feFlood flood-color="#00ff2f" result="flood2"></feFlood><feComposite operator="in" in="flood2" in2="SourceAlpha" result="color2"></feComposite><feMorphology operator="dilate" radius="2" in="color" result="dilate"></feMorphology><feGaussianBlur stdDeviation="6" in="color" result="blur1"></feGaussianBlur><feGaussianBlur stdDeviation="2.5" in="color" result="blur2"></feGaussianBlur><feGaussianBlur stdDeviation="1" in="SourceAlpha" result="blur3"></feGaussianBlur><feGaussianBlur stdDeviation="6" in="dilate" result="blur4"></feGaussianBlur><feConvolveMatrix in="color2" result="conv" order="3,3" divisor="1" kernelMatrix="1 1 1  1 1 1  1 1 1"></feConvolveMatrix><feMerge><feMergeNode in="blur1"></feMergeNode><feMergeNode in="blur2"></feMergeNode><feMergeNode in="blur4"></feMergeNode><feMergeNode in="blur3"></feMergeNode><feMergeNode in="blur3"></feMergeNode><feMergeNode in="blur3"></feMergeNode><feMergeNode in="blur3"></feMergeNode><feMergeNode in="conv"></feMergeNode><feMergeNode in="SourceGraphic"></feMergeNode></feMerge></filter></defs><g filter="url(#editing-neon)"><g transform="translate(141.3749804496765, 93.14499855041504)"><path d="M27.34-14.84L27.34-14.84L30.33-14.86L30.33-14.86Q31.43-14.86 31.60-14.88L31.60-14.88L31.60-0.39L31.60-0.39Q24.75 0.76 20.66 0.76L20.66 0.76L20.66 0.76Q16.58 0.76 13.01-0.40L13.01-0.40L13.01-0.40Q9.43-1.56 6.82-3.71L6.82-3.71L6.82-3.71Q4.20-5.86 2.71-8.92L2.71-8.92L2.71-8.92Q1.23-11.97 1.23-15.76L1.23-15.76L1.23-15.76Q1.23-23.20 7.16-27.64L7.16-27.64L7.16-27.64Q13.09-32.07 22.36-32.07L22.36-32.07L22.36-32.07Q26.91-32.07 29.57-31.09L29.57-31.09L29.57-31.09Q30.04-30.92 30.08-30.92L30.08-30.92L30.08-21.48L30.08-21.48Q27.21-22.36 24.80-22.36L24.80-22.36L24.80-22.36Q20.43-22.36 17.95-20.04L17.95-20.04L17.95-20.04Q15.47-17.71 15.49-14.69L15.49-14.69L15.49-14.69Q15.49-12.58 16.65-11.23L16.65-11.23L16.65-11.23Q17.81-9.88 19.84-9.88L19.84-9.88L19.84-9.88Q20.94-9.88 21.52-10.16L21.52-10.16L21.52-10.16Q21.56-10.88 21.56-12.01L21.56-12.01L21.56-14.84L21.56-14.84Q24.45-14.84 27.34-14.84ZM42.06-35.53L42.06-35.53L42.06-35.53Q44.92-35.53 46.31-34.33L46.31-34.33L46.31-34.33Q47.70-33.13 47.69-31.27L47.69-31.27L47.69-31.27Q47.68-29.41 45.91-27.85L45.91-27.85L45.91-27.85Q44.14-26.29 41.19-26.29L41.19-26.29L41.19-26.29Q37.05-26.29 36.04-28.79L36.04-28.79L36.04-28.79Q35.74-29.49 35.74-30.35L35.74-30.35L35.74-30.35Q35.74-31.21 36.15-32.15L36.15-32.15L36.15-32.15Q36.56-33.09 37.38-33.83L37.38-33.83L37.38-33.83Q39.20-35.53 42.06-35.53ZM47.34-24.28L47.34 0L36.04 0L36.04-24.28L47.34-24.28ZM70.43-33.44L70.43-27.60L70.43-27.60Q69.47-27.87 68.54-27.87L68.54-27.87L68.54-27.87Q66.84-27.87 65.95-26.90L65.95-26.90L65.95-26.90Q65.06-25.94 64.94-24.28L64.94-24.28L70.47-24.28L70.47-18.09L64.94-18.09L64.94 0L53.26 0L53.26-18.09L51.04-18.09L51.04-24.28L53.26-24.28L53.26-28.40L53.26-28.40Q53.26-31.64 55.84-33.54L55.84-33.54L55.84-33.54Q58.42-35.43 62.71-35.44L62.71-35.44L62.71-35.44Q67.01-35.45 70.43-33.44L70.43-33.44ZM74.02-9.36L74.02-17.79L88.95-17.79L88.95-9.36L74.02-9.36ZM93.71 0L93.71-31.19L105.86-31.19L105.86-9.39L116.35-9.39L116.35 0L93.71 0ZM122.01-2.16L122.01-2.16L122.01-2.16Q120.45-3.61 119.52-5.83L119.52-5.83L119.52-5.83Q118.59-8.05 118.59-10.61L118.59-10.61L118.59-10.61Q118.59-13.16 119.10-15.04L119.10-15.04L119.10-15.04Q120.12-18.77 122.66-21.31L122.66-21.31L122.66-21.31Q123.87-22.56 125.35-23.42L125.35-23.42L125.35-23.42Q128.40-25.20 131.79-25.20L131.79-25.20L131.79-25.20Q135.18-25.20 137.73-22.95L137.73-22.95L137.73-22.95Q138.55-22.23 139.16-21.29L139.16-21.29L141.95-24.28L148.36-24.28L148.36 0L141.95 0L139.16-4.04L139.16-4.04Q135.96 0.68 129.45 0.70L129.45 0.70L129.45 0.70Q127.66 0.72 125.62 0.01L125.62 0.01L125.62 0.01Q123.57-0.70 122.01-2.16ZM137.83-10L137.83-16.91L137.83-16.91Q137.13-17.32 136.15-17.32L136.15-17.32L136.15-17.32Q135.18-17.32 134.09-16.63L134.09-16.63L134.09-16.63Q133.01-15.94 132.15-14.88L132.15-14.88L132.15-14.88Q130.23-12.52 130.23-10.08L130.23-10.08L130.23-10.08Q130.23-8.36 131.29-7.66L131.29-7.66L131.29-7.66Q132.27-7.01 134.27-7.84L134.27-7.84L134.27-7.84Q136.27-8.67 137.83-10L137.83-10ZM166.19-17.68L166.19-17.68L166.19-17.68Q164.63-17.68 164.63-15.16L164.63-15.16L164.63 0L153.03 0L153.03-24.28L159.43-24.28L162.23-20.49L162.23-20.49Q163.79-22.66 166.55-23.93L166.55-23.93L166.55-23.93Q169.32-25.20 171.72-25.20L171.72-25.20L171.72-25.20Q176.13-25.20 178.72-22.85L178.72-22.85L178.72-22.85Q181.31-20.51 181.31-16.56L181.31-16.56L181.31 0L169.63 0L169.63-11.72L169.63-11.72Q169.63-17.68 166.19-17.68ZM199.86-25.16L199.86-25.16L199.86-25.16Q202.19-25.16 204.65-24.39L204.65-24.39L204.65-32.87L216.02-32.87L216.02 0L208.77 0L205.98-4.04L205.98-4.04Q202.40 0.68 196.58 0.68L196.58 0.68L196.58 0.68Q191.91 0.68 188.43-2.49L188.43-2.49L188.43-2.49Q184.94-5.66 184.94-10.63L184.94-10.63L184.94-10.63Q184.94-15.59 186.97-18.79L186.97-18.79L186.97-18.79Q191.00-25.16 199.86-25.16ZM204.65-9.96L204.65-16.91L204.65-16.91Q203.98-17.32 203.20-17.32L203.20-17.32L203.20-17.32Q202.42-17.32 201.70-17.01L201.70-17.01L201.70-17.01Q200.21-16.37 199.04-14.92L199.04-14.92L199.04-14.92Q198.42-14.22 197.99-13.42L197.99-13.42L197.99-13.42Q197.05-11.70 197.05-10.01L197.05-10.01L197.05-10.01Q197.05-8.32 198.09-7.66L198.09-7.66L198.09-7.66Q198.46-7.42 198.98-7.40L198.98-7.40L198.98-7.40Q201.52-7.40 204.65-9.96L204.65-9.96Z" fill="none" stroke="#e9ffd4" stroke-width="1"></path></g></g><style>text {
  font-size: 64px;
  font-family: Arial Black;
  dominant-baseline: central;
  text-anchor: middle;
}</style></svg>